<?xml version="1.0" encoding="utf-8"?>
<!DOCTYPE svg PUBLIC "-//W3C//DTD SVG 1.1//EN" "http://www.w3.org/Graphics/SVG/1.1/DTD/svg11.dtd">
<svg version="1.1" xmlns="http://www.w3.org/2000/svg" xmlns:xlink="http://www.w3.org/1999/xlink" xmlns:xml="http://www.w3.org/XML/1998/namespace" width="1280" height="720" overflow="hidden">
  <defs>
    <clipPath id="clip0">
      <rect x="0" y="0" width="1280" height="720" />
    </clipPath>
    <clipPath id="clip1">
      <rect x="0" y="0" width="447675" height="466725" />
    </clipPath>
    <image preserveAspectRatio="none" width="90" height="135" xlink:href="images/Slide3--img2.png" id="img2" />
    <clipPath id="clip3">
      <rect x="0" y="99000.6" width="447370" height="466725" />
    </clipPath>
    <clipPath id="clip4">
      <rect x="9.31323E-10" y="-9.31323E-10" width="457200" height="457200" />
    </clipPath>
    <image preserveAspectRatio="none" width="150" height="88" xlink:href="images/Slide3--img5.png" id="img5" />
    <clipPath id="clip6">
      <path d="M156002 0 L613202 0 L613202 452447 L156002 452447 Z" clip-rule="evenodd" fill-rule="evenodd" />
    </clipPath>
    <clipPath id="clip7">
      <rect x="9.31323E-10" y="-9.31323E-10" width="447675" height="447675" />
    </clipPath>
    <image preserveAspectRatio="none" width="72" height="72" xlink:href="images/Slide3--img8.png" id="img8" />
    <clipPath id="clip9">
      <rect x="-0.5" y="0" width="447675" height="447675" />
    </clipPath>
    <clipPath id="clip10">
      <rect x="0" y="0" width="533400" height="409575" />
    </clipPath>
    <image preserveAspectRatio="none" width="115" height="115" xlink:href="images/Slide3--img11.png" id="img11" />
    <clipPath id="clip12">
      <path d="M45634.9 106494 L579035 106494 L579035 514487 L45634.9 514487 Z" clip-rule="evenodd" fill-rule="evenodd" />
    </clipPath>
    <clipPath id="clip13">
      <rect x="0" y="-9.31323E-10" width="1276350" height="419100" />
    </clipPath>
    <image preserveAspectRatio="none" width="140" height="63" xlink:href="images/Slide3--img14.png" id="img14" />
    <clipPath id="clip15">
      <rect x="0" y="17356.8" width="1241743" height="419100" />
    </clipPath>
    <clipPath id="clip16">
      <rect x="-1.45519E-11" y="0" width="1828800" height="495300" />
    </clipPath>
    <image preserveAspectRatio="none" width="357" height="129" xlink:href="images/Slide3--img17.png" id="img17" />
    <clipPath id="clip18">
      <path d="M76763.9 108465 L1905564 108465 L1905564 603528 L76763.9 603528 Z" clip-rule="evenodd" fill-rule="evenodd" />
    </clipPath>
    <clipPath id="clip19">
      <rect x="0" y="-9.31323E-10" width="1504950" height="485775" />
    </clipPath>
    <image preserveAspectRatio="none" width="247" height="72" xlink:href="images/Slide3--img20.png" id="img20" />
    <clipPath id="clip21">
      <path d="M39188.8 3879.4 L1532296 3879.4 L1532296 456938 L39188.8 456938 Z" clip-rule="evenodd" fill-rule="evenodd" />
    </clipPath>
    <clipPath id="clip22">
      <rect x="0" y="-4.65661E-10" width="1285875" height="476250" />
    </clipPath>
    <image preserveAspectRatio="none" width="150" height="55" xlink:href="images/Slide3--img23.jpg" id="img23" />
    <clipPath id="clip24">
      <rect x="0" y="0" width="1285875" height="471488" />
    </clipPath>
    <clipPath id="clip25">
      <rect x="9.31323E-10" y="0" width="1314450" height="485775" />
    </clipPath>
    <clipPath id="clip26">
      <rect x="0" y="0" width="1314450" height="481965" />
    </clipPath>
    <clipPath id="clip27">
      <rect x="0" y="0" width="1314450" height="481965" />
    </clipPath>
    <clipPath id="clip28">
      <rect x="-9.31323E-10" y="0" width="638175" height="781050" />
    </clipPath>
    <image preserveAspectRatio="none" width="105" height="128" xlink:href="images/Slide3--img29.png" id="img29" />
    <clipPath id="clip30">
      <rect x="0" y="0" width="638175" height="777966" />
    </clipPath>
    <clipPath id="clip31">
      <rect x="0" y="0" width="609600" height="638175" />
    </clipPath>
    <image preserveAspectRatio="none" width="128" height="128" xlink:href="images/Slide3--img32.png" id="img32" />
    <clipPath id="clip33">
      <path d="M77626.7 74131.3 L687227 74131.3 L687227 702344 L77626.8 702344 Z" clip-rule="evenodd" fill-rule="evenodd" />
    </clipPath>
    <image preserveAspectRatio="none" width="113" height="113" xlink:href="images/Slide3--img34.jpg" id="img34" />
    <clipPath id="clip35">
      <rect x="0" y="0" width="733425" height="733425" />
    </clipPath>
    <clipPath id="clip36">
      <rect x="0" y="0" width="752475" height="781050" />
    </clipPath>
    <image preserveAspectRatio="none" width="122" height="103" xlink:href="images/Slide3--img37.jpg" id="img37" />
    <clipPath id="clip38">
      <path d="M164339 61788.9 L908134 61788.9 L908134 842839 L164339 842839 Z" clip-rule="evenodd" fill-rule="evenodd" />
    </clipPath>
    <clipPath id="clip39">
      <rect x="0" y="0" width="1143000" height="800100" />
    </clipPath>
    <image preserveAspectRatio="none" width="192" height="135" xlink:href="images/Slide3--img40.png" id="img40" />
    <clipPath id="clip41">
      <rect x="0" y="0" width="1137920" height="800100" />
    </clipPath>
    <clipPath id="clip42">
      <rect x="0" y="0" width="609600" height="609600" />
    </clipPath>
    <image preserveAspectRatio="none" width="64" height="64" xlink:href="images/Slide3--img43.png" id="img43" />
    <clipPath id="clip44">
      <rect x="-1" y="-0.5" width="609600" height="609600" />
    </clipPath>
  </defs>
  <g clip-path="url(#clip0)" id="gSlide--slide3">
    <rect x="0" y="0" width="1280" height="720" id="rectSlide--slide3--0" style="fill:white;" />
    <rect x="0" y="660" width="1280" height="60" id="BottomRectangle--slide3--1" style="fill:#8064A2;" />
    <rect x="0" y="0" width="1280" height="67" id="TopRectangle--slide3--2" style="fill:#8064A2;" />
    <path d="M5.50005 13.8335 C5.50005 8.12651 10.1265 3.50005 15.8335 3.50005 L202.167 3.50005 C207.874 3.50005 212.5 8.12651 212.5 13.8335 L212.5 55.1666 C212.5 60.8736 207.874 65.5001 202.167 65.5001 L15.8335 65.5001 C10.1265 65.5001 5.50005 60.8736 5.50005 55.1666 Z" id="rect1--slide3--3" fill-rule="evenodd" stroke-width="1.33333" stroke-miterlimit="8" style="fill:white;stroke:#4F81BD;" />
    <path d="M218.5 13.8336 C218.5 8.12656 223.127 3.50005 228.834 3.50005 L414.166 3.50005 C419.874 3.50005 424.5 8.12656 424.5 13.8336 L424.5 55.1665 C424.5 60.8735 419.874 65.5 414.166 65.5 L228.834 65.5 C223.127 65.5 218.5 60.8735 218.5 55.1665 Z" id="rect2--slide3--4" fill-rule="evenodd" stroke-width="1.33333" stroke-miterlimit="8" style="fill:white;stroke:#4F81BD;" />
    <text transform="translate(240.953, 48)" id="rect2--slide3--5" font-family="Carlito,sans-serif" font-size="43" font-weight="700" style="fill:#8064A2;">Compare</text>
    <path d="M431.5 13.8336 C431.5 8.12656 436.127 3.50005 441.834 3.50005 L627.167 3.50005 C632.874 3.50005 637.5 8.12656 637.5 13.8336 L637.5 55.1665 C637.5 60.8735 632.874 65.5 627.167 65.5 L441.834 65.5 C436.127 65.5 431.5 60.8735 431.5 55.1665 Z" id="rect3--slide3--6" fill-rule="evenodd" stroke-width="1.33333" stroke-miterlimit="8" style="fill:white;stroke:#4F81BD;" />
    <text transform="translate(450.382, 48)" id="rect3--slide3--7" font-family="Carlito,sans-serif" font-size="43" font-weight="700" style="fill:#8064A2;">Full Stack</text>
    <path d="M644.5 13.8336 C644.5 8.12656 649.127 3.50005 654.834 3.50005 L840.167 3.50005 C845.874 3.50005 850.5 8.12656 850.5 13.8336 L850.5 55.1665 C850.5 60.8735 845.874 65.5 840.167 65.5 L654.834 65.5 C649.127 65.5 644.5 60.8735 644.5 55.1665 Z" id="rect4--slide3--8" fill-rule="evenodd" stroke-width="1.33333" stroke-miterlimit="8" style="fill:white;stroke:#4F81BD;" />
    <text transform="translate(673.444, 48)" id="rect4--slide3--9" font-family="Carlito,sans-serif" font-size="43" font-weight="700" style="fill:#8064A2;">Mindset</text>
    <path d="M856.5 13.8335 C856.5 8.12651 861.127 3.50005 866.834 3.50005 L1053.17 3.50005 C1058.87 3.50005 1063.5 8.12651 1063.5 13.8335 L1063.5 55.1666 C1063.5 60.8736 1058.87 65.5001 1053.17 65.5001 L866.834 65.5001 C861.127 65.5001 856.5 60.8736 856.5 55.1666 Z" id="rect5--slide3--10" fill-rule="evenodd" stroke-width="1.33333" stroke-miterlimit="8" style="fill:white;stroke:#4F81BD;" />
    <text transform="translate(876.007, 48)" id="rect5--slide3--11" font-family="Carlito,sans-serif" font-size="43" font-weight="700" style="fill:#8064A2;">Decisions</text>
    <path d="M1069.5 13.8336 C1069.5 8.12656 1074.13 3.50005 1079.83 3.50005 L1265.17 3.50005 C1270.87 3.50005 1275.5 8.12656 1275.5 13.8336 L1275.5 55.1665 C1275.5 60.8735 1270.87 65.5 1265.17 65.5 L1079.83 65.5 C1074.13 65.5 1069.5 60.8735 1069.5 55.1665 Z" id="rect6--slide3--12" fill-rule="evenodd" stroke-width="1.33333" stroke-miterlimit="8" style="fill:white;stroke:#4F81BD;" />
    <text transform="translate(1102.47, 48)" id="rect6--slide3--13" font-family="Carlito,sans-serif" font-size="43" font-weight="700" style="fill:#8064A2;">Options</text>
    <g clip-path="url(#clip1)" transform="matrix(0.000104987, 0, 0, 0.000104987, 587, 665)" id="imgLinkedIn--slide3--14">
      <g clip-path="url(#clip3)" transform="matrix(1.00068, 0, 0, 1, 0, -99000.9)">
        <use xlink:href="#img2" width="100%" height="100%" transform="scale(4970.77)" />
      </g>
    </g>
    <g clip-path="url(#clip4)" transform="matrix(0.000104987, 0, 0, 0.000104987, 648, 666)" id="imgGitHub--slide3--15">
      <g clip-path="url(#clip6)" transform="matrix(1, 0, 0, 1.01051, -156002, 0)">
        <use xlink:href="#img5" width="100%" height="100%" transform="scale(5141.44)" />
      </g>
    </g>
    <g clip-path="url(#clip7)" transform="matrix(0.000104987, 0, 0, 0.000104987, 708, 666)" id="imgSessionize--slide3--16">
      <g clip-path="url(#clip9)">
        <use xlink:href="#img8" width="100%" height="100%" transform="matrix(6217.71, 0, 0, 6217.71, -0.5, 0)" />
      </g>
    </g>
    <g clip-path="url(#clip10)" transform="matrix(0.000104987, 0, 0, 0.000104987, 520, 669)" id="imgYouTube--slide3--17">
      <g clip-path="url(#clip12)" transform="matrix(1, 0, 0, 1.00388, -45635.5, -106907)">
        <use xlink:href="#img11" width="100%" height="100%" transform="scale(5427.79)" />
      </g>
    </g>
    <g clip-path="url(#clip13)" transform="matrix(0.000104987, 0, 0, 0.000104987, 1132, 666)" id="imgMultimodalSlides--slide3--18">
      <g clip-path="url(#clip15)" transform="matrix(1.02787, 0, 0, 1, -1, -17356.5)">
        <use xlink:href="#img14" width="100%" height="100%" transform="scale(9279.37)" />
      </g>
    </g>
    <text transform="translate(1012.7, 695)" id="rectMultimodalSlides--slide3--19" font-family="Carlito,sans-serif" font-size="21" font-weight="700" style="fill:white;">Created with</text>
    <text transform="translate(14.7744, 698)" id="rectEmail--slide3--20" font-family="Carlito,sans-serif" font-size="24" font-weight="400" style="fill:white;">John@JohnBaluka.com</text>
    <path d="M14.7744 701.333 L71.0244 701.333 L127.274 701.333 L183.524 701.333 L239.774 701.333 L239.774 703.333 L183.524 703.333 L127.274 703.333 L71.0244 703.333 L14.7744 703.333 Z" id="rectEmail--slide3--21" fill-rule="evenodd" style="fill:white;" />
    <g clip-path="url(#clip16)" transform="matrix(0.000104987, 0, 0, 0.000104987, 12, 7)" id="Picture_14--slide3--22">
      <g clip-path="url(#clip18)" transform="matrix(1, 0, 0, 1.00048, -76763.9, -108517)">
        <use xlink:href="#img17" width="100%" height="100%" transform="scale(5541.88)" />
      </g>
    </g>
    <g clip-path="url(#clip19)" transform="matrix(0.000104987, 0, 0, 0.000104987, 316, 666)" id="imgJohnBaluka--slide3--23">
      <g clip-path="url(#clip21)" transform="matrix(1.00793, 0, 0, 1, -39499.6, -3879.41)">
        <use xlink:href="#img20" width="100%" height="100%" transform="scale(6346.36)" />
      </g>
    </g>
    <g clip-path="url(#clip22)" transform="matrix(0.000104987, 0, 0, 0.000104987, 244, 338)" id="Blazor_Server2--slide3--24" class="fragment-off" data-fragment-index="2">
      <g clip-path="url(#clip24)" transform="scale(1, 1.0101)">
        <use xlink:href="#img23" width="100%" height="100%" transform="scale(8572.5)" />
      </g>
    </g>
    <g clip-path="url(#clip25)" transform="matrix(0.000104987, 0, 0, 0.000104987, 663, 148)" id="Blazor_Server--slide3--25">
      <g clip-path="url(#clip26)" transform="scale(1, 1.00791)">
        <use xlink:href="#img23" width="100%" height="100%" transform="scale(8763)" />
      </g>
    </g>
    <text transform="translate(9.6, -22)" id="TitlePlaceholder--slide3--26" font-family="Carlito,sans-serif" font-size="39" font-weight="300">FullStack</text>
    <text transform="translate(1194.11, -17)" id="SectionNameTextPlaceholder--slide3--27" font-family="Carlito,sans-serif" font-size="21" font-weight="400">FullStack</text>
    <path d="M429 13.3336 C429 7.62651 433.626 3 439.334 3 L624.666 3 C630.373 3 635 7.62651 635 13.3336 L635 54.6664 C635 60.3735 630.373 65 624.666 65 L439.334 65 C433.626 65 429 60.3735 429 54.6664 Z" id="rectHighlight--slide3--28" fill-rule="evenodd" stroke-width="6" stroke-miterlimit="8" style="fill:none;stroke:#FFC000;" />
    <path d="M661 160.334 C661 150.761 668.76 143 678.334 143 L1023.67 143 C1033.24 143 1041 150.761 1041 160.334 L1041 229.666 C1041 239.239 1033.24 247 1023.67 247 L678.334 247 C668.76 247 661 239.239 661 229.666 Z" id="Rounded_Rectangle_15--slide3--29" fill-rule="evenodd" stroke-width="6" stroke-miterlimit="8" style="fill:none;stroke:#5B2D90;" />
    <path d="M926.5 163 C926.5 159.41 929.41 156.5 933 156.5 L1023 156.5 C1026.59 156.5 1029.5 159.41 1029.5 163 L1029.5 189 C1029.5 192.59 1026.59 195.5 1023 195.5 L933 195.5 C929.41 195.5 926.5 192.59 926.5 189 Z" id="rectServer--slide3--30" fill-rule="evenodd" stroke-width="1.33333" stroke-miterlimit="8" style="fill:#8064A2;stroke:#1C334E;" />
    <text transform="translate(948.464, 181)" id="rectServer--slide3--31" font-family="Carlito,sans-serif" font-size="23" font-weight="400" style="fill:white;">Server</text>
    <g transform="matrix(0.000104987, 0, 0, 0.000104987, 241, 148)" id="__Blazor--slide3--32">
      <g clip-path="url(#clip27)" transform="scale(1, 1.00791)">
        <use xlink:href="#img23" width="100%" height="100%" transform="scale(8763)" />
      </g>
    </g>
    <path d="M239 160.334 C239 150.761 246.76 143 256.334 143 L601.666 143 C611.24 143 619 150.761 619 160.334 L619 229.666 C619 239.239 611.24 247 601.666 247 L256.334 247 C246.76 247 239 239.239 239 229.666 Z" id="__rectBlazor--slide3--33" fill-rule="evenodd" stroke-width="6" stroke-miterlimit="8" style="fill:none;stroke:#5B2D90;" />
    <path d="M242 352.167 C242 342.686 249.686 335 259.167 335 L604.833 335 C614.314 335 622 342.686 622 352.167 L622 420.833 C622 430.314 614.314 438 604.833 438 L259.167 438 C249.686 438 242 430.314 242 420.833 Z" id="Rounded_Rectangle_34--slide3--34" fill-rule="evenodd" stroke-width="6" stroke-miterlimit="8" class="fragment-off" data-fragment-index="2" style="fill:none;stroke:#5B2D90;" />
    <path d="M505.5 163 C505.5 159.41 508.41 156.5 512 156.5 L602 156.5 C605.59 156.5 608.5 159.41 608.5 163 L608.5 189 C608.5 192.59 605.59 195.5 602 195.5 L512 195.5 C508.41 195.5 505.5 192.59 505.5 189 Z" id="rectClient--slide3--35" fill-rule="evenodd" stroke-width="1.33333" stroke-miterlimit="8" style="fill:#8064A2;stroke:#1C334E;" />
    <text transform="translate(529.544, 181)" id="rectClient--slide3--36" font-family="Carlito,sans-serif" font-size="23" font-weight="400" style="fill:white;">Client</text>
    <path d="M251.5 207.833 C251.5 204.336 254.336 201.5 257.833 201.5 L602.167 201.5 C605.664 201.5 608.5 204.336 608.5 207.833 L608.5 233.167 C608.5 236.664 605.664 239.5 602.167 239.5 L257.833 239.5 C254.336 239.5 251.5 236.664 251.5 233.167 Z" id="rectWasm--slide3--37" fill-rule="evenodd" stroke-width="1.33333" stroke-miterlimit="8" style="fill:#8064A2;stroke:#1C334E;" />
    <text transform="translate(268.003, 225)" id="rectWasm--slide3--38" font-family="Carlito,sans-serif" font-size="20" font-weight="400" style="fill:white;">Interactive with Web Assembly (WASM)</text>
    <path d="M508.5 349.833 C508.5 346.336 511.336 343.5 514.833 343.5 L605.167 343.5 C608.664 343.5 611.5 346.336 611.5 349.833 L611.5 375.167 C611.5 378.664 608.664 381.5 605.167 381.5 L514.833 381.5 C511.336 381.5 508.5 378.664 508.5 375.167 Z" id="rectServer2--slide3--39" fill-rule="evenodd" stroke-width="1.33333" stroke-miterlimit="8" class="fragment-off" data-fragment-index="2" style="fill:#8064A2;stroke:#1C334E;" />
    <text transform="translate(530.474, 368)" id="rectServer2--slide3--40" font-family="Carlito,sans-serif" font-size="23" font-weight="400" class="fragment-off" data-fragment-index="2" style="fill:white;">Server</text>
    <path d="M669.5 207.834 C669.5 204.336 672.336 201.5 675.833 201.5 L1023.17 201.5 C1026.66 201.5 1029.5 204.336 1029.5 207.834 L1029.5 233.167 C1029.5 236.664 1026.66 239.5 1023.17 239.5 L675.833 239.5 C672.336 239.5 669.5 236.664 669.5 233.167 Z" id="rectInteractive--slide3--41" fill-rule="evenodd" stroke-width="1.33333" stroke-miterlimit="8" style="fill:#8064A2;stroke:#1C334E;" />
    <text transform="translate(741.539, 226)" id="rectInteractive--slide3--42" font-family="Carlito,sans-serif" font-size="23" font-weight="400" style="fill:white;">Interactive with</text>
    <text transform="translate(890.726, 226)" id="rectInteractive--slide3--43" font-family="Carlito,sans-serif" font-size="23" font-weight="400" style="fill:white;">SignalR</text>
    <path d="M251.5 397.834 C251.5 394.336 254.336 391.5 257.833 391.5 L605.167 391.5 C608.664 391.5 611.5 394.336 611.5 397.834 L611.5 423.167 C611.5 426.664 608.664 429.5 605.167 429.5 L257.833 429.5 C254.336 429.5 251.5 426.664 251.5 423.167 Z" id="rectNotInteractive--slide3--44" fill-rule="evenodd" stroke-width="1.33333" stroke-miterlimit="8" class="fragment-off" data-fragment-index="2" style="fill:#8064A2;stroke:#1C334E;" />
    <text transform="translate(359.448, 416)" id="rectNotInteractive--slide3--45" font-family="Carlito,sans-serif" font-size="23" font-weight="400" class="fragment-off" data-fragment-index="2" style="fill:white;">NOT Interactive</text>
    <path d="M227.5 309.668 C227.5 294.111 240.111 281.5 255.668 281.5 L1025.33 281.5 C1040.89 281.5 1053.5 294.111 1053.5 309.668 L1053.5 422.332 C1053.5 437.889 1040.89 450.5 1025.33 450.5 L255.668 450.5 C240.111 450.5 227.5 437.889 227.5 422.332 Z" id="Rounded_Rectangle_47--slide3--46" fill-rule="evenodd" stroke-width="3" stroke-miterlimit="8" class="fragment-off" data-fragment-index="3" style="fill:none;stroke:#5B2D90;" />
    <path d="M239.5 298 C239.5 294.41 242.41 291.5 246 291.5 L418 291.5 C421.59 291.5 424.5 294.41 424.5 298 L424.5 324 C424.5 327.59 421.59 330.5 418 330.5 L246 330.5 C242.41 330.5 239.5 327.59 239.5 324 Z" id="rectReleased--slide3--47" fill-rule="evenodd" stroke-width="1.33333" stroke-miterlimit="8" class="fragment-off" data-fragment-index="2" style="fill:#8064A2;stroke:#1C334E;" />
    <text transform="translate(257.099, 316)" id="rectReleased--slide3--48" font-family="Carlito,sans-serif" font-size="20" font-weight="400" class="fragment-off" data-fragment-index="2" style="fill:white;">Released in .NET 8</text>
    <path d="M436.5 298 C436.5 294.41 439.41 291.5 443 291.5 L615 291.5 C618.59 291.5 621.5 294.41 621.5 298 L621.5 324 C621.5 327.59 618.59 330.5 615 330.5 L443 330.5 C439.41 330.5 436.5 327.59 436.5 324 Z" id="rectDefaultSetting--slide3--49" fill-rule="evenodd" stroke-width="1.33333" stroke-miterlimit="8" class="fragment-off" data-fragment-index="2" style="fill:#8064A2;stroke:#1C334E;" />
    <text transform="translate(460.251, 316)" id="rectDefaultSetting--slide3--50" font-family="Carlito,sans-serif" font-size="23" font-weight="400" class="fragment-off" data-fragment-index="2" style="fill:white;">Default Setting</text>
    <path d="M661 352.167 C661 342.686 668.686 335 678.167 335 L1020.83 335 C1030.31 335 1038 342.686 1038 352.167 L1038 420.833 C1038 430.314 1030.31 438 1020.83 438 L678.167 438 C668.686 438 661 430.314 661 420.833 Z" id="Rounded_Rectangle_60--slide3--51" fill-rule="evenodd" stroke-width="6" stroke-miterlimit="8" class="fragment-off" data-fragment-index="3" style="fill:none;stroke:#35495E;" />
    <g clip-path="url(#clip28)" transform="matrix(0.000104987, 0, 0, 0.000104987, 681, 345)" id="Picture_20--slide3--52" class="fragment-off" data-fragment-index="3">
      <g clip-path="url(#clip30)" transform="matrix(1, 0, 0, 1.00396, -0.5, -0.25)">
        <use xlink:href="#img29" width="100%" height="100%" transform="scale(6077.86)" />
      </g>
    </g>
    <path d="M659.5 298 C659.5 294.41 662.41 291.5 666 291.5 L1035 291.5 C1038.59 291.5 1041.5 294.41 1041.5 298 L1041.5 324 C1041.5 327.59 1038.59 330.5 1035 330.5 L666 330.5 C662.41 330.5 659.5 327.59 659.5 324 Z" id="Rounded_Rectangle_62--slide3--53" fill-rule="evenodd" stroke-width="1.33333" stroke-miterlimit="8" class="fragment-off" data-fragment-index="3" style="fill:#35495E;stroke:#1C334E;" />
    <text transform="translate(715.421, 316)" id="Rounded_Rectangle_62--slide3--54" font-family="Carlito,sans-serif" font-size="23" font-weight="400" class="fragment-off" data-fragment-index="3" style="fill:white;">Including JavaScript expected</text>
    <g clip-path="url(#clip31)" transform="matrix(0.000104987, 0, 0, 0.000104987, 771, 342)" id="Picture_22--slide3--55" class="fragment-off" data-fragment-index="3">
      <g clip-path="url(#clip33)" transform="matrix(1, 0, 0, 1.01586, -77627.2, -75307)">
        <use xlink:href="#img32" width="100%" height="100%" transform="scale(5797.89)" />
      </g>
    </g>
    <g transform="matrix(0.000104987, 0, 0, 0.000104987, 846, 348)" id="Picture_26--slide3--56" class="fragment-off" data-fragment-index="3">
      <g clip-path="url(#clip35)">
        <use xlink:href="#img34" width="100%" height="100%" transform="scale(6490.49)" />
      </g>
    </g>
    <text transform="translate(769.381, 424)" id="Rectangle_65--slide3--57" font-family="Carlito,sans-serif" font-size="21" font-weight="400" class="fragment-off" data-fragment-index="3" style="fill:#DD0031;">Angular</text>
    <path d="M239.5 104.167 C239.5 100.485 242.485 97.5001 246.167 97.5001 L1034.83 97.5001 C1038.52 97.5001 1041.5 100.485 1041.5 104.167 L1041.5 130.833 C1041.5 134.515 1038.52 137.5 1034.83 137.5 L246.167 137.5 C242.485 137.5 239.5 134.515 239.5 130.833 Z" id="rectAutoMode--slide3--58" fill-rule="evenodd" stroke-width="1.33333" stroke-miterlimit="8" class="fragment-off" data-fragment-index="1" style="fill:#8064A2;stroke:#1C334E;" />
    <text transform="translate(430.553, 124)" id="rectAutoMode--slide3--59" font-family="Carlito,sans-serif" font-size="24" font-weight="400" class="fragment-off" data-fragment-index="1" style="fill:white;">Optional “Auto” mode</text>
    <text transform="translate(652.7, 124)" id="rectAutoMode--slide3--60" font-family="Carlito,sans-serif" font-size="24" font-weight="400" class="fragment-off" data-fragment-index="1" style="fill:white;">–</text>
    <text transform="translate(670.2, 124)" id="rectAutoMode--slide3--61" font-family="Carlito,sans-serif" font-size="24" font-weight="400" class="fragment-off" data-fragment-index="1" style="fill:white;">Released in .NET 8</text>
    <path d="M227.5 113.334 C227.5 96.8573 240.857 83.5001 257.334 83.5001 L1023.67 83.5001 C1040.14 83.5001 1053.5 96.8573 1053.5 113.334 L1053.5 232.666 C1053.5 249.143 1040.14 262.5 1023.67 262.5 L257.334 262.5 C240.857 262.5 227.5 249.143 227.5 232.666 Z" id="Rounded_Rectangle_69--slide3--62" fill-rule="evenodd" stroke-width="3" stroke-miterlimit="8" class="fragment-off" data-fragment-index="1" style="fill:none;stroke:#5B2D90;" />
    <path d="M2.99994 -0.0191201 L3.56576 88.7572 L-2.43412 88.7955 L-2.99994 0.0191201 Z M9.54651 85.7191 L0.661417 103.776 L-8.45312 85.8338 Z" transform="matrix(1, 0, 0, -1, 431, 541.776)" id="Straight_Arrow_Connector_71--slide3--63" class="fragment-off" data-fragment-index="4" style="fill:#1485C9;" />
    <path d="M377 484.667 C377 480.985 379.985 478 383.667 478 L478.333 478 C482.015 478 485 480.985 485 484.667 L485 511.333 C485 515.015 482.015 518 478.333 518 L383.667 518 C379.985 518 377 515.015 377 511.333 Z" id="Rounded_Rectangle_70--slide3--64" fill-rule="evenodd" stroke-width="6" stroke-miterlimit="8" class="fragment-off" data-fragment-index="4" style="fill:#1485C9;stroke:#1485C9;" />
    <text transform="translate(397.854, 505)" id="Rounded_Rectangle_70--slide3--65" font-family="Carlito,sans-serif" font-size="24" font-weight="400" class="fragment-off" data-fragment-index="4" style="fill:white;">Similar</text>
    <g clip-path="url(#clip36)" transform="matrix(0.000104987, 0, 0, 0.000104987, 934, 345)" id="Picture_2--slide3--66" class="fragment-off" data-fragment-index="3">
      <g clip-path="url(#clip38)" transform="matrix(1.01167, 0, 0, 1, -166257, -61789.2)">
        <use xlink:href="#img37" width="100%" height="100%" transform="scale(8760.11)" />
      </g>
    </g>
    <path d="M241 559.167 C241 549.686 248.686 542 258.167 542 L603.833 542 C613.314 542 621 549.686 621 559.167 L621 627.833 C621 637.314 613.314 645 603.833 645 L258.167 645 C248.686 645 241 637.314 241 627.833 Z" id="Rounded_Rectangle_76--slide3--67" fill-rule="evenodd" stroke-width="6" stroke-miterlimit="8" class="fragment-off" data-fragment-index="4" style="fill:none;stroke:#1485C9;" />
    <rect x="409" y="551" width="185" height="41" id="Rectangle_77--slide3--68" class="fragment-off" data-fragment-index="4" style="fill:#1485C9;" />
    <text transform="translate(433.722, 581)" id="Rectangle_77--slide3--69" font-family="Carlito,sans-serif" font-size="29" font-weight="400" class="fragment-off" data-fragment-index="4" style="fill:white;">Web Forms</text>
    <g clip-path="url(#clip39)" transform="matrix(0.000104987, 0, 0, 0.000104987, 276, 550)" id="Picture_6_DUP2--slide3--70" class="fragment-off" data-fragment-index="4">
      <g clip-path="url(#clip41)" transform="matrix(1.00446, 0, 0, 1, 0, -0.5)">
        <use xlink:href="#img40" width="100%" height="100%" transform="scale(5926.67)" />
      </g>
    </g>
    <rect x="409" y="596" width="185" height="40" id="Rectangle_79--slide3--71" class="fragment-off" data-fragment-index="4" style="fill:#1485C9;" />
    <text transform="translate(472.949, 625)" id="Rectangle_79--slide3--72" font-family="Carlito,sans-serif" font-size="29" font-weight="400" class="fragment-off" data-fragment-index="4" style="fill:white;">MVC</text>
    <path d="M709.5 477.5 C709.5 472.53 713.53 468.5 718.5 468.5 L1204.5 468.5 C1209.47 468.5 1213.5 472.53 1213.5 477.5 L1213.5 513.5 C1213.5 518.471 1209.47 522.5 1204.5 522.5 L718.5 522.5 C713.53 522.5 709.5 518.471 709.5 513.5 Z" id="Text3--slide3--73" fill-rule="evenodd" stroke-width="1.33333" stroke-miterlimit="8" class="fragment-off" data-fragment-index="5" style="fill:#8064A2;stroke:#1C334E;" />
    <text transform="translate(763.534, 506)" id="Text3--slide3--74" font-family="Carlito,sans-serif" font-size="32" font-weight="400" class="fragment-off" data-fragment-index="5" style="fill:white;">Provides Architectural Options</text>
    <path d="M709.5 539.333 C709.5 534.455 713.455 530.5 718.333 530.5 L1204.67 530.5 C1209.55 530.5 1213.5 534.455 1213.5 539.333 L1213.5 574.667 C1213.5 579.545 1209.55 583.5 1204.67 583.5 L718.333 583.5 C713.455 583.5 709.5 579.545 709.5 574.667 Z" id="Text2--slide3--75" fill-rule="evenodd" stroke-width="1.33333" stroke-miterlimit="8" class="fragment-off" data-fragment-index="6" style="fill:#8064A2;stroke:#1C334E;" />
    <text transform="translate(758.534, 566)" id="Text2--slide3--76" font-family="Carlito,sans-serif" font-size="29" font-weight="400" class="fragment-off" data-fragment-index="6" style="fill:white;">More Focus on Business Problems</text>
    <path d="M709.5 600.5 C709.5 595.53 713.53 591.5 718.5 591.5 L1204.5 591.5 C1209.47 591.5 1213.5 595.53 1213.5 600.5 L1213.5 636.5 C1213.5 641.471 1209.47 645.5 1204.5 645.5 L718.5 645.5 C713.53 645.5 709.5 641.471 709.5 636.5 Z" id="Text1--slide3--77" fill-rule="evenodd" stroke-width="1.33333" stroke-miterlimit="8" class="fragment-off" data-fragment-index="7" style="fill:#8064A2;stroke:#1C334E;" />
    <text transform="translate(750.741, 627)" id="Text1--slide3--78" font-family="Carlito,sans-serif" font-size="29" font-weight="400" class="fragment-off" data-fragment-index="7" style="fill:white;">Central to a True Full Stack Solution</text>
    <g clip-path="url(#clip42)" transform="matrix(0.000104987, 0, 0, 0.000104987, 1200, 640)" id="Slide3--slide3--79" style="display:none;">
      <g clip-path="url(#clip44)">
        <use xlink:href="#img43" width="100%" height="100%" transform="matrix(9525, 0, 0, 9525, -1, -0.5)" />
      </g>
    </g>
  </g>
</svg>